<?xml version="1.0" encoding="iso-8859-1"?>
<!-- Generator: Adobe Illustrator 18.0.0, SVG Export Plug-In . SVG Version: 6.00 Build 0)  -->
<!DOCTYPE svg PUBLIC "-//W3C//DTD SVG 1.1//EN" "http://www.w3.org/Graphics/SVG/1.1/DTD/svg11.dtd">
<svg version="1.1" id="Capa_1" xmlns="http://www.w3.org/2000/svg" xmlns:xlink="http://www.w3.org/1999/xlink" x="0px" y="0px"
	 viewBox="0 0 297.002 297.002" style="enable-background:new 0 0 297.002 297.002;" xml:space="preserve">
<path d="M286.117,27.857H112.898V232.62h33.205v23.797c0,4.883-3.973,8.855-8.855,8.855h-69.73c-4.801,0-8.854-3.294-8.854-7.194
	v-7.194h25.457c6.111,0,11.068-4.956,11.068-11.068V20.662c0-6.113-4.957-11.068-11.068-11.068H11.068
	C4.957,9.594,0,14.549,0,20.662v219.152c0,6.112,4.957,11.068,11.068,11.068h25.459v7.194c0,16.174,13.902,29.331,30.99,29.331
	h69.73c17.09,0,30.992-13.902,30.992-30.991V232.62h117.693c6.111,0,11.068-4.956,11.068-11.068V38.925
	c0-6.05-4.859-10.96-10.885-11.059V27.857z M157.172,175.618h-18.264c-4.889,0-8.854-3.965-8.854-8.854
	c0-4.89,3.965-8.855,8.854-8.855h18.264c4.889,0,8.854,3.965,8.854,8.855C166.025,171.653,162.061,175.618,157.172,175.618z
	 M157.172,139.093h-18.264c-4.889,0-8.854-3.965-8.854-8.855c0-4.89,3.965-8.854,8.854-8.854h18.264
	c4.889,0,8.854,3.965,8.854,8.854C166.025,135.128,162.061,139.093,157.172,139.093z M157.172,102.567h-18.264
	c-4.889,0-8.854-3.965-8.854-8.854c0-4.89,3.965-8.854,8.854-8.854h18.264c4.889,0,8.854,3.965,8.854,8.854
	C166.025,98.603,162.061,102.567,157.172,102.567z M211.959,175.618h-18.262c-4.891,0-8.855-3.965-8.855-8.854
	c0-4.89,3.965-8.855,8.855-8.855h18.262c4.891,0,8.855,3.965,8.855,8.855C220.814,171.653,216.85,175.618,211.959,175.618z
	 M211.959,139.093h-18.262c-4.891,0-8.855-3.965-8.855-8.855c0-4.89,3.965-8.854,8.855-8.854h18.262
	c4.891,0,8.855,3.965,8.855,8.854C220.814,135.128,216.85,139.093,211.959,139.093z M211.959,102.567h-18.262
	c-4.891,0-8.855-3.965-8.855-8.854c0-4.89,3.965-8.854,8.855-8.854h18.262c4.891,0,8.855,3.965,8.855,8.854
	C220.814,98.603,216.85,102.567,211.959,102.567z M266.748,175.618h-18.264c-4.889,0-8.854-3.965-8.854-8.854
	c0-4.89,3.965-8.855,8.854-8.855h18.264c4.891,0,8.855,3.965,8.855,8.855C275.603,171.653,271.639,175.618,266.748,175.618z
	 M266.748,139.093h-18.264c-4.889,0-8.854-3.965-8.854-8.855c0-4.89,3.965-8.854,8.854-8.854h18.264
	c4.891,0,8.855,3.965,8.855,8.854C275.603,135.128,271.639,139.093,266.748,139.093z M266.748,102.567h-18.264
	c-4.889,0-8.854-3.965-8.854-8.854c0-4.89,3.965-8.854,8.854-8.854h18.264c4.891,0,8.855,3.965,8.855,8.854
	C275.603,98.603,271.639,102.567,266.748,102.567z"/>
<g>
</g>
<g>
</g>
<g>
</g>
<g>
</g>
<g>
</g>
<g>
</g>
<g>
</g>
<g>
</g>
<g>
</g>
<g>
</g>
<g>
</g>
<g>
</g>
<g>
</g>
<g>
</g>
<g>
</g>
</svg>
